<svg width="621" height="314" viewBox="0 0 621 314" fill="none" xmlns="http://www.w3.org/2000/svg">
<path d="M477.951 296.441L487.178 300.644L485.67 290.618L476.122 227.141C538.115 211.39 581.436 187.818 600.78 160.6C610.872 146.4 614.558 130.995 610.541 115.44C606.576 100.085 595.328 85.4544 577.36 72.0744C541.51 45.3786 482.711 26.4681 415.6 16.83C348.317 7.16722 271.957 6.72102 200.45 17.5072C129.09 28.2715 73.5359 48.5685 41.0123 73.8063C24.7314 86.4401 13.7547 100.681 9.95908 116.036C6.1039 131.631 9.8796 147.469 21.2867 162.529C32.5758 177.434 50.5102 190.535 72.9783 201.661C95.5058 212.816 122.931 222.154 153.596 229.357C214.547 243.674 288.768 249.665 363.806 244.454L477.951 296.441Z" fill="#FFD966" stroke="#999999" stroke-width="11"/>
<path d="M477.951 296.441L487.178 300.644L485.67 290.618L476.122 227.141C538.115 211.39 581.436 187.818 600.78 160.6C610.872 146.4 614.558 130.995 610.541 115.44C606.576 100.085 595.328 85.4544 577.36 72.0744C541.51 45.3786 482.711 26.4681 415.6 16.83C348.317 7.16722 271.957 6.72102 200.45 17.5072C129.09 28.2715 73.5359 48.5685 41.0123 73.8063C24.7314 86.4401 13.7547 100.681 9.95908 116.036C6.1039 131.631 9.8796 147.469 21.2867 162.529C32.5758 177.434 50.5102 190.535 72.9783 201.661C95.5058 212.816 122.931 222.154 153.596 229.357C214.547 243.674 288.768 249.665 363.806 244.454L477.951 296.441Z" fill="#FFD966" stroke="#999999" stroke-width="11"/>
<path d="M357.266 70.519H477.494V185.432H357.266V70.519Z" fill="#007BFF"/>
<path d="M112.188 163.61C106.031 163.61 100.132 162.893 94.4923 161.459C88.8526 160.021 84.3093 158.153 80.8623 155.853L86.9103 144.169C90.2057 146.212 94.1051 147.888 98.6084 149.197C103.116 150.506 107.678 151.161 112.295 151.161C115.814 151.161 118.653 150.858 120.812 150.253C122.975 149.644 124.568 148.797 125.591 147.712C126.618 146.626 127.131 145.381 127.131 143.977C127.131 142.191 126.325 140.771 124.713 139.719C123.101 138.663 120.976 137.801 118.337 137.133C115.702 136.462 112.79 135.824 109.6 135.219C106.414 134.61 103.228 133.86 100.041 132.969C96.8555 132.074 93.943 130.925 91.3042 129.52C88.6653 128.115 86.5209 126.263 84.8711 123.964C83.2255 121.665 82.4027 118.727 82.4027 115.151C82.4027 111.323 83.5938 107.83 85.9759 104.672C88.3581 101.511 91.9481 98.9896 96.7461 97.1083C101.544 95.2233 107.569 94.2808 114.82 94.2808C119.656 94.2808 124.418 94.7758 129.107 95.766C133.8 96.7525 137.941 98.236 141.531 100.216L136.032 111.994C132.442 110.208 128.852 108.884 125.262 108.022C121.672 107.16 118.156 106.729 114.713 106.729C111.27 106.729 108.448 107.082 106.247 107.786C104.05 108.486 102.476 109.396 101.525 110.514C100.574 111.629 100.098 112.92 100.098 114.387C100.098 116.11 100.904 117.5 102.516 118.557C104.128 119.609 106.251 120.454 108.886 121.093C111.525 121.731 114.437 122.369 117.623 123.007C120.814 123.645 124.002 124.38 127.188 125.213C130.374 126.042 133.286 127.158 135.925 128.563C138.564 129.967 140.706 131.819 142.352 134.119C144.002 136.415 144.827 139.317 144.827 142.827C144.827 146.593 143.617 150.041 141.197 153.169C138.781 156.297 135.174 158.82 130.376 160.738C125.578 162.652 119.515 163.61 112.188 163.61ZM194.393 163.61C188.311 163.61 182.686 162.748 177.518 161.024C172.354 159.301 167.884 156.875 164.109 153.746C160.338 150.618 157.408 146.947 155.321 142.733C153.233 138.52 152.19 133.923 152.19 128.942C152.19 123.962 153.233 119.367 155.321 115.157C157.408 110.943 160.357 107.272 164.166 104.144C167.979 101.016 172.448 98.5899 177.575 96.8662C182.705 95.1426 188.273 94.2808 194.279 94.2808C200.361 94.2808 205.948 95.1426 211.04 96.8662C216.133 98.5899 220.565 101.016 224.336 104.144C228.111 107.272 231.059 110.927 233.18 115.107C235.306 119.288 236.369 123.9 236.369 128.942C236.369 133.923 235.306 138.536 233.18 142.783C231.059 147.026 228.111 150.697 224.336 153.796C220.565 156.891 216.133 159.301 211.04 161.024C205.948 162.748 200.399 163.61 194.393 163.61ZM194.279 150.396C197.722 150.396 200.891 149.886 203.787 148.867C206.682 147.844 209.229 146.375 211.425 144.461C213.622 142.543 215.325 140.276 216.533 137.661C217.745 135.043 218.351 132.137 218.351 128.942C218.351 125.752 217.745 122.847 216.533 120.229C215.325 117.61 213.639 115.344 211.476 113.43C209.317 111.515 206.771 110.048 203.837 109.029C200.908 108.006 197.722 107.494 194.279 107.494C190.836 107.494 187.667 108.006 184.772 109.029C181.88 110.048 179.334 111.515 177.133 113.43C174.936 115.344 173.233 117.61 172.025 120.229C170.818 122.847 170.214 125.752 170.214 128.942C170.214 132.071 170.818 134.961 172.025 137.612C173.233 140.26 174.917 142.543 177.076 144.461C179.239 146.375 181.785 147.844 184.715 148.867C187.648 149.886 190.836 150.396 194.279 150.396ZM286.598 163.61C280.659 163.61 275.144 162.764 270.051 161.074C264.963 159.379 260.55 156.968 256.813 153.84C253.075 150.712 250.163 147.041 248.075 142.827C245.988 138.613 244.944 133.985 244.944 128.942C244.944 123.9 245.988 119.272 248.075 115.058C250.163 110.844 253.092 107.173 256.863 104.045C260.638 100.917 265.053 98.5073 270.108 96.8167C275.163 95.1261 280.695 94.2808 286.705 94.2808C293.372 94.2808 299.397 95.2856 304.78 97.2953C310.167 99.305 314.691 102.257 318.353 106.152L306.926 115.344C304.287 112.729 301.356 110.767 298.132 109.458C294.908 108.149 291.392 107.494 287.583 107.494C283.993 107.494 280.695 108.006 277.69 109.029C274.689 110.048 272.088 111.515 269.887 113.43C267.69 115.344 265.988 117.61 264.78 120.229C263.572 122.847 262.968 125.752 262.968 128.942C262.968 132.137 263.572 135.043 264.78 137.661C265.988 140.276 267.69 142.543 269.887 144.461C272.088 146.375 274.689 147.844 277.69 148.867C280.695 149.886 283.993 150.396 287.583 150.396C291.392 150.396 294.908 149.742 298.132 148.432C301.356 147.123 304.287 145.128 306.926 142.447L318.353 151.639C314.691 155.534 310.167 158.503 304.78 160.546C299.397 162.588 293.336 163.61 286.598 163.61ZM330.335 162.46V95.425H348.138V162.46H330.335Z" fill="#191919"/>
<path d="M356.259 162.447L390.552 95.4121H408.134L442.534 162.447H423.847L395.716 103.268H402.748L374.504 162.447H356.259ZM373.405 148.084L378.134 136.306H417.692L422.527 148.084H373.405ZM450.555 162.447V95.4121H468.357V162.447H450.555Z" fill="white"/>
<path d="M486.562 162.447V95.4121H504.365V149.806H542.938V162.447H486.562Z" fill="#191919"/>
</svg>
